<mxfile host="app.diagrams.net" agent="Mozilla/5.0 (Windows NT 10.0; Win64; x64) AppleWebKit/537.36 (KHTML, like Gecko) Chrome/133.0.0.0 Safari/537.36" version="26.0.15">
  <diagram id="C5RBs43oDa-KdzZeNtuy" name="Page-1">
    <mxGraphModel dx="2072" dy="1124" grid="1" gridSize="10" guides="1" tooltips="1" connect="1" arrows="1" fold="1" page="1" pageScale="1" pageWidth="827" pageHeight="1169" math="0" shadow="0">
      <root>
        <mxCell id="WIyWlLk6GJQsqaUBKTNV-0" />
        <mxCell id="WIyWlLk6GJQsqaUBKTNV-1" parent="WIyWlLk6GJQsqaUBKTNV-0" />
        <mxCell id="R2d8Acfa6SfkNJneHcL2-3" style="edgeStyle=orthogonalEdgeStyle;rounded=0;orthogonalLoop=1;jettySize=auto;html=1;exitX=0.5;exitY=1;exitDx=0;exitDy=0;exitPerimeter=0;" edge="1" parent="WIyWlLk6GJQsqaUBKTNV-1" source="R2d8Acfa6SfkNJneHcL2-0" target="R2d8Acfa6SfkNJneHcL2-2">
          <mxGeometry relative="1" as="geometry" />
        </mxCell>
        <mxCell id="R2d8Acfa6SfkNJneHcL2-0" value="Start" style="strokeWidth=2;html=1;shape=mxgraph.flowchart.start_2;whiteSpace=wrap;" vertex="1" parent="WIyWlLk6GJQsqaUBKTNV-1">
          <mxGeometry x="240" y="20" width="100" height="100" as="geometry" />
        </mxCell>
        <mxCell id="R2d8Acfa6SfkNJneHcL2-1" value="End" style="strokeWidth=2;html=1;shape=mxgraph.flowchart.terminator;whiteSpace=wrap;" vertex="1" parent="WIyWlLk6GJQsqaUBKTNV-1">
          <mxGeometry x="364" y="780" width="100" height="60" as="geometry" />
        </mxCell>
        <mxCell id="R2d8Acfa6SfkNJneHcL2-4" style="edgeStyle=orthogonalEdgeStyle;rounded=0;orthogonalLoop=1;jettySize=auto;html=1;exitX=0.5;exitY=1;exitDx=0;exitDy=0;exitPerimeter=0;entryX=0.5;entryY=0;entryDx=0;entryDy=0;entryPerimeter=0;" edge="1" parent="WIyWlLk6GJQsqaUBKTNV-1" source="R2d8Acfa6SfkNJneHcL2-2" target="R2d8Acfa6SfkNJneHcL2-8">
          <mxGeometry relative="1" as="geometry">
            <mxPoint x="250" y="300" as="targetPoint" />
          </mxGeometry>
        </mxCell>
        <mxCell id="R2d8Acfa6SfkNJneHcL2-7" value="If multiple of 3" style="edgeLabel;html=1;align=center;verticalAlign=middle;resizable=0;points=[];" vertex="1" connectable="0" parent="R2d8Acfa6SfkNJneHcL2-4">
          <mxGeometry x="0.2077" y="3" relative="1" as="geometry">
            <mxPoint as="offset" />
          </mxGeometry>
        </mxCell>
        <mxCell id="R2d8Acfa6SfkNJneHcL2-5" style="edgeStyle=orthogonalEdgeStyle;rounded=0;orthogonalLoop=1;jettySize=auto;html=1;exitX=0.5;exitY=1;exitDx=0;exitDy=0;exitPerimeter=0;entryX=0.59;entryY=-0.017;entryDx=0;entryDy=0;entryPerimeter=0;" edge="1" parent="WIyWlLk6GJQsqaUBKTNV-1" source="R2d8Acfa6SfkNJneHcL2-2" target="R2d8Acfa6SfkNJneHcL2-9">
          <mxGeometry relative="1" as="geometry">
            <mxPoint x="570" y="300" as="targetPoint" />
          </mxGeometry>
        </mxCell>
        <mxCell id="R2d8Acfa6SfkNJneHcL2-6" value="If Multiple of 5" style="edgeLabel;html=1;align=center;verticalAlign=middle;resizable=0;points=[];" vertex="1" connectable="0" parent="R2d8Acfa6SfkNJneHcL2-5">
          <mxGeometry x="0.0066" y="1" relative="1" as="geometry">
            <mxPoint as="offset" />
          </mxGeometry>
        </mxCell>
        <mxCell id="R2d8Acfa6SfkNJneHcL2-15" style="edgeStyle=orthogonalEdgeStyle;rounded=0;orthogonalLoop=1;jettySize=auto;html=1;exitX=0.5;exitY=1;exitDx=0;exitDy=0;exitPerimeter=0;" edge="1" parent="WIyWlLk6GJQsqaUBKTNV-1" source="R2d8Acfa6SfkNJneHcL2-2" target="R2d8Acfa6SfkNJneHcL2-13">
          <mxGeometry relative="1" as="geometry" />
        </mxCell>
        <mxCell id="R2d8Acfa6SfkNJneHcL2-16" value="If multiple of 3 and 5" style="edgeLabel;html=1;align=center;verticalAlign=middle;resizable=0;points=[];" vertex="1" connectable="0" parent="R2d8Acfa6SfkNJneHcL2-15">
          <mxGeometry x="0.2615" y="2" relative="1" as="geometry">
            <mxPoint as="offset" />
          </mxGeometry>
        </mxCell>
        <mxCell id="R2d8Acfa6SfkNJneHcL2-2" value="Display Numbers 1-25" style="strokeWidth=2;html=1;shape=mxgraph.flowchart.display;whiteSpace=wrap;" vertex="1" parent="WIyWlLk6GJQsqaUBKTNV-1">
          <mxGeometry x="240" y="170" width="100" height="50" as="geometry" />
        </mxCell>
        <mxCell id="R2d8Acfa6SfkNJneHcL2-8" value="display fizz" style="strokeWidth=2;html=1;shape=mxgraph.flowchart.display;whiteSpace=wrap;" vertex="1" parent="WIyWlLk6GJQsqaUBKTNV-1">
          <mxGeometry x="180" y="300" width="100" height="60" as="geometry" />
        </mxCell>
        <mxCell id="R2d8Acfa6SfkNJneHcL2-18" style="edgeStyle=orthogonalEdgeStyle;rounded=0;orthogonalLoop=1;jettySize=auto;html=1;exitX=0.5;exitY=1;exitDx=0;exitDy=0;exitPerimeter=0;entryX=0.58;entryY=0.017;entryDx=0;entryDy=0;entryPerimeter=0;" edge="1" parent="WIyWlLk6GJQsqaUBKTNV-1" source="R2d8Acfa6SfkNJneHcL2-9" target="R2d8Acfa6SfkNJneHcL2-1">
          <mxGeometry relative="1" as="geometry">
            <mxPoint x="410" y="780" as="targetPoint" />
          </mxGeometry>
        </mxCell>
        <mxCell id="R2d8Acfa6SfkNJneHcL2-9" value="Display Buzz" style="strokeWidth=2;html=1;shape=mxgraph.flowchart.display;whiteSpace=wrap;" vertex="1" parent="WIyWlLk6GJQsqaUBKTNV-1">
          <mxGeometry x="440" y="300" width="100" height="60" as="geometry" />
        </mxCell>
        <mxCell id="R2d8Acfa6SfkNJneHcL2-13" value="Display fizzBuzz" style="strokeWidth=2;html=1;shape=mxgraph.flowchart.display;whiteSpace=wrap;" vertex="1" parent="WIyWlLk6GJQsqaUBKTNV-1">
          <mxGeometry x="580" y="250" width="100" height="60" as="geometry" />
        </mxCell>
        <mxCell id="R2d8Acfa6SfkNJneHcL2-19" style="edgeStyle=orthogonalEdgeStyle;rounded=0;orthogonalLoop=1;jettySize=auto;html=1;exitX=0.5;exitY=1;exitDx=0;exitDy=0;exitPerimeter=0;entryX=0.11;entryY=0.11;entryDx=0;entryDy=0;entryPerimeter=0;" edge="1" parent="WIyWlLk6GJQsqaUBKTNV-1" source="R2d8Acfa6SfkNJneHcL2-8" target="R2d8Acfa6SfkNJneHcL2-1">
          <mxGeometry relative="1" as="geometry" />
        </mxCell>
        <mxCell id="R2d8Acfa6SfkNJneHcL2-20" style="edgeStyle=orthogonalEdgeStyle;rounded=0;orthogonalLoop=1;jettySize=auto;html=1;exitX=0.5;exitY=1;exitDx=0;exitDy=0;exitPerimeter=0;entryX=0.89;entryY=0.11;entryDx=0;entryDy=0;entryPerimeter=0;" edge="1" parent="WIyWlLk6GJQsqaUBKTNV-1" source="R2d8Acfa6SfkNJneHcL2-13" target="R2d8Acfa6SfkNJneHcL2-1">
          <mxGeometry relative="1" as="geometry" />
        </mxCell>
      </root>
    </mxGraphModel>
  </diagram>
</mxfile>
